<?xml version="1.0" encoding="UTF-8"?>
<svg width="217px" height="47px" viewBox="0 0 217 47" version="1.1" xmlns="http://www.w3.org/2000/svg" xmlns:xlink="http://www.w3.org/1999/xlink">
    <!-- Generator: Sketch 45.1 (43504) - http://www.bohemiancoding.com/sketch -->
    <title>Group</title>
    <desc>Created with Sketch.</desc>
    <defs></defs>
    <g id="Page-1" stroke="none" stroke-width="1" fill="none" fill-rule="evenodd">
        <g id="article" transform="translate(-29.000000, -25.000000)">
            <g id="Group" transform="translate(29.000000, 25.000000)">
                <polygon id="Fill-1" fill="#FFFFFF" points="20.2822585 -6.8115942e-05 0.725679651 11.2751638 5.48622549 14.0181928 9.78081363 16.4935261 20.2822585 10.4400623 30.7864322 16.4942072 39.840884 11.2751638"></polygon>
                <polygon id="Fill-2" fill="#FFFFFF" points="31.5110885 17.7475406 31.5117707 29.8578739 21.0062326 35.9120188 21.0062326 36.7471203 21.0062326 46.350787 40.5655403 35.0769174 40.5655403 12.5278159"></polygon>
                <polygon id="Fill-3" fill="#FFFFFF" points="0 35.0770536 19.557261 46.3509232 19.557261 36.7472565 19.557261 35.9121551 9.05513398 29.857329 9.05513398 17.7463145 8.81908513 17.6100826 0.00136444421 12.527271"></polygon>
                <polygon id="Fill-4" fill="#FFFFFF" points="11.3087183 17.3748783 11.3087183 17.3748783 12.6233602 18.1330087 20.2819856 22.5482841 29.3378018 17.3299217 20.2819856 12.1101971 11.2295805 17.3292406"></polygon>
                <polygon id="Fill-5" fill="#FFFFFF" points="30.0624581 18.5818928 21.0066419 23.8022986 21.0066419 34.2417478 30.0617759 29.0227043"></polygon>
                <polygon id="Fill-6" fill="#ADB6C7" points="19.5573293 34.2418841 19.5573293 23.8024348 10.5035597 18.5813478 10.5035597 29.0228406"></polygon>
                <path d="M55.710257,35.9148797 L59.6378096,35.9148797 L59.6378096,16.9888652 L55.710257,16.9888652 L55.710257,35.9148797 Z M57.7146255,13.3078797 C56.3917968,13.3078797 55.3097926,12.2677493 55.3097926,10.9469812 C55.3097926,9.6268942 56.3515457,8.58676377 57.6743744,8.58676377 C58.9562697,8.58676377 59.9980229,9.6268942 59.9980229,10.9469812 C59.9980229,12.2275609 58.9965208,13.3078797 57.7146255,13.3078797 L57.7146255,13.3078797 Z" id="Fill-7" fill="#FFFFFF"></path>
                <path d="M76.8300113,35.9148116 L76.8300113,24.3916377 C76.8300113,21.790971 76.8300113,19.9497971 73.944894,19.9497971 C72.5422454,19.9497971 70.8182701,20.269942 69.0949771,20.8707246 L69.0949771,35.9148116 L65.1681067,35.9148116 L65.1681067,16.9887971 L68.895086,16.9887971 L68.895086,18.5895217 C71.6601322,17.189058 73.7838896,16.5487681 75.5876848,16.5487681 C77.5108689,16.5487681 78.9940198,17.2687536 79.8351997,18.5098261 C80.5965595,19.6296522 80.7575639,20.5498986 80.7575639,23.551087 L80.7575639,35.9148116 L76.8300113,35.9148116 Z" id="Fill-9" fill="#FFFFFF"></path>
                <path d="M92.3792175,36.3548406 C87.8110583,36.3548406 84.8447566,32.9538116 84.8447566,26.631971 C84.8447566,20.4300145 88.1310204,16.5487681 92.9004352,16.5487681 C94.463406,16.5487681 96.5469123,16.9091014 99.1918874,17.8293478 L98.5901675,20.3101304 C96.4268412,19.829913 95.5051591,19.7093478 94.0220083,19.7093478 C90.6961755,19.7093478 89.0124514,21.9510435 89.0124514,26.512087 C89.0124514,30.8333623 90.6961755,33.0341884 93.741615,33.0341884 C95.0644437,33.0341884 96.8675567,32.6738551 98.8309919,32.0737536 L99.5923518,34.3944638 C96.6669834,35.6750435 94.2628327,36.3548406 92.3792175,36.3548406" id="Fill-10" fill="#FFFFFF"></path>
                <polygon id="Fill-11" fill="#FFFFFF" points="102.958913 35.9148797 106.886466 35.9148797 106.886466 7.50576377 102.958913 7.50576377"></polygon>
                <path d="M124.037939,35.9148116 L124.037939,34.314087 C121.272893,35.7152319 119.108884,36.3548406 117.425842,36.3548406 C115.381905,36.3548406 113.979256,35.6750435 113.137394,34.4748406 C112.336465,33.3141449 112.175461,32.1936377 112.175461,29.473087 L112.175461,16.9887971 L116.103014,16.9887971 L116.103014,28.5126522 C116.103014,31.114 116.103014,32.9538116 118.988813,32.9538116 C120.391462,32.9538116 122.114755,32.6336667 123.838048,32.0335652 L123.838048,16.9887971 L127.764918,16.9887971 L127.764918,35.9148116 L124.037939,35.9148116 Z" id="Fill-12" fill="#FFFFFF"></path>
                <path d="M144.677136,20.9902 C142.272985,20.1503304 141.510943,19.9500696 140.348437,19.9500696 C137.703462,19.9500696 136.261244,22.1107072 136.261244,26.352287 C136.261244,30.9133304 137.584073,32.9942725 140.188797,32.9942725 C141.270801,32.9942725 142.352805,32.7538232 144.677136,31.8737652 L144.677136,20.9902 Z M144.877027,35.9150841 L144.877027,34.1944754 C142.633198,35.4750551 140.46919,36.355113 138.585575,36.355113 C134.4977,36.355113 132.093549,32.6339391 132.093549,26.5123594 C132.093549,20.4697942 134.857913,16.5490406 139.02629,16.5490406 C141.070228,16.5490406 142.993412,17.6293594 144.677136,18.6299826 L144.677136,7.50596812 L148.604689,7.50596812 L148.604689,35.9150841 L144.877027,35.9150841 Z" id="Fill-13" fill="#FFFFFF"></path>
                <path d="M161.628718,19.3099159 C159.063563,19.3099159 157.540843,21.1504087 157.220199,24.6713217 L165.234944,24.3511768 C165.155124,20.9106406 164.032869,19.3099159 161.628718,19.3099159 L161.628718,19.3099159 Z M157.100128,26.9525246 L157.100128,27.5921333 C157.100128,31.3936841 158.703349,33.1142928 161.668969,33.1142928 C163.39158,33.1142928 164.954551,32.7941478 168.040241,31.7935246 L168.762032,34.1142348 C164.83448,35.8348435 162.911295,36.3545681 160.626534,36.3545681 C155.977872,36.3545681 152.932433,32.9140319 152.932433,27.0724087 C152.932433,20.7103797 156.058374,16.5491768 161.307391,16.5491768 C166.39745,16.5491768 168.961923,19.6300609 168.961923,26.0717855 L168.961923,26.9525246 L157.100128,26.9525246 Z" id="Fill-14" fill="#FFFFFF"></path>
                <path d="M193.743778,24.1871536 C193.742413,24.3165739 193.741049,24.4459942 193.741049,24.5754145 C193.75674,26.5391971 193.614838,28.1119942 193.294875,29.5240377 C192.84188,31.5259652 192.156247,32.9066754 191.072878,34.0006174 C190.147785,34.934487 188.96413,35.5202841 187.556023,35.742342 C187.058001,35.8213565 186.558614,35.8615449 186.070826,35.8615449 C185.147097,35.8615449 184.232919,35.7185014 183.351488,35.4385449 C181.443995,34.8302696 180.108887,33.5224435 179.38232,31.5498058 C178.480422,29.0969507 178.116116,26.3287188 178.268251,23.0857188 C178.347389,21.4298203 178.574569,20.0096029 178.9648,18.7440087 C179.569249,16.7815884 180.464324,15.4185884 181.783742,14.4520232 C182.566933,13.878487 183.485204,13.4963565 184.513313,13.3151681 C185.677183,13.1101391 186.830139,13.1237623 187.927834,13.3553565 C189.990874,13.7926609 191.518369,15.0439507 192.466658,17.074487 C193.429955,19.1370377 193.646902,21.2983565 193.737638,23.3268493 C193.751282,23.6156609 193.747189,23.9065159 193.743778,24.1871536 M196.392846,21.1539507 C196.246168,19.8611101 195.918702,18.5730377 195.419315,17.3251536 C194.851024,15.9049362 194.103991,14.7517333 193.135918,13.8008348 C191.886087,12.5733855 190.31834,11.7709797 188.477023,11.4154145 C187.661768,11.2580667 186.839008,11.1776899 186.030574,11.1776899 C185.061137,11.1776899 184.085559,11.2928058 183.128402,11.5196319 C181.822629,11.8288783 180.652618,12.3772116 179.650433,13.1496464 C178.230047,14.2435884 177.1842,15.7162551 176.450812,17.6521101 C175.849774,19.2412551 175.507981,20.988429 175.404965,22.9930812 C175.274661,25.5481101 175.447263,27.773458 175.933687,29.7978638 C176.472643,32.0436464 177.321327,33.7186174 178.604587,35.0693565 C179.426665,35.9337478 180.421344,36.6046899 181.561337,37.0637913 C182.641977,37.4990522 183.858379,37.7483565 185.28013,37.8266899 C186.817177,37.9097913 188.300327,37.7340522 189.693425,37.3001536 C191.411942,36.7654435 192.841198,35.7872986 193.940258,34.3936464 C195.038635,32.9999942 195.784986,31.2732551 196.219562,29.1146609 C196.532019,27.5670667 196.632988,25.9677043 196.690977,24.6053855 C196.661642,24.2545884 196.634353,23.9037913 196.607064,23.5529942 C196.545664,22.7655739 196.482899,21.9502261 196.392846,21.1539507" id="Fill-15" fill="#FFFFFF"></path>
                <path d="M215.527607,26.9719377 C215.116227,25.9897058 214.3651,25.2288507 213.090027,24.5061406 C211.646445,23.687387 210.016617,23.1765174 208.578493,22.726271 C207.403024,22.3570826 206.186622,21.9763145 205.046629,21.3823435 C203.830909,20.7481841 203.22646,19.8654014 203.198489,18.6829087 C203.188938,18.2919232 203.184845,17.7762855 203.233965,17.2545174 C203.315149,16.4126043 203.633747,15.659242 204.182936,15.0169087 C205.003649,14.0551116 206.114306,13.5210826 207.577673,13.3855319 C207.923559,13.3535174 208.285819,13.3371696 208.654219,13.3371696 C210.116903,13.3371696 211.581634,13.5905609 212.873763,13.8139812 C213.279685,13.8841406 213.683561,13.9631551 214.094258,14.0428507 L214.416949,14.1055174 L214.846067,12.2949957 C212.73459,11.7173725 210.932159,11.4006333 209.182259,11.2991406 C208.861615,11.2807493 208.549157,11.271213 208.255802,11.271213 C206.875666,11.271213 205.6886,11.480329 204.62638,11.9101406 C203.051129,12.5463435 201.948658,13.5476478 201.252792,14.9719522 C200.631287,16.2457203 200.41707,17.633242 200.598541,19.2121696 C200.784787,20.833329 201.555698,22.145242 202.890125,23.1097638 C204.042398,23.9428217 205.349535,24.4455174 206.698971,24.9291406 C207.073511,25.063329 207.450779,25.1927493 207.828048,25.3214884 C208.963266,25.7104304 210.136688,26.1123145 211.243252,26.661329 C212.566763,27.3179667 213.275592,28.2634159 213.409307,29.5508072 C213.502089,30.4533435 213.530061,31.6297058 212.909921,32.7284159 C212.048274,34.2521696 210.621066,35.138358 208.545064,35.4380681 C208.061368,35.5075464 207.568804,35.5416043 207.042128,35.5416043 C205.655853,35.5416043 204.26412,35.2943435 203.068867,35.0627493 C202.630198,34.9776043 202.189483,34.8754304 201.763776,34.7759812 C201.461552,34.7051406 201.158645,34.6349812 200.854374,34.5695899 C200.707014,35.0600246 200.569887,35.5531841 200.432078,36.0463435 L200.313372,36.4700246 C200.665398,36.5544884 201.004463,36.6389522 201.343527,36.7227348 C202.163558,36.9270826 203.010878,37.138242 203.851376,37.2880971 C204.642071,37.4297783 205.470289,37.4856333 206.270535,37.5394449 L206.748773,37.5728217 C208.51641,37.6988362 210.140781,37.4692855 211.597325,36.8868942 C213.721083,36.0388507 215.117591,34.5600536 215.750011,32.4927348 C216.12114,31.2782275 216.206418,30.0024159 216.003116,28.6986768 C215.906922,28.0767783 215.745918,27.4957493 215.527607,26.9719377" id="Fill-16" fill="#FFFFFF"></path>
            </g>
        </g>
    </g>
</svg>