<svg xmlns="http://www.w3.org/2000/svg" viewBox="0 0 1123 395"><defs><style>.cls-1{isolation:isolate;}.cls-2,.cls-3,.cls-6,.cls-7{fill:#68a9d6;}.cls-2,.cls-6{opacity:0.7;}.cls-3,.cls-7{opacity:0.9;}.cls-4,.cls-5{fill:#fff;}.cls-4{opacity:0.5;}.cls-6,.cls-7{mix-blend-mode:overlay;}.cls-8{fill:#2b2620;}</style></defs><title>Artboard 1</title><g class="cls-1"><g id="Layer_1" data-name="Layer 1"><polygon class="cls-2" points="167.73 0.24 -0.28 96.03 167.73 193.03 335.74 96.03 167.73 0.24"/><polygon class="cls-3" points="167.73 193.24 -0.28 289.03 167.73 386.03 335.74 289.03 167.73 193.24"/><polygon class="cls-4" points="167.73 300.35 74.18 246.34 74.18 139 167.73 193.01 167.73 300.35"/><polygon class="cls-4" points="261.27 246.34 167.73 300.35 167.73 193.01 261.27 139 261.27 246.34"/><polygon class="cls-5" points="167.73 85.73 74.18 139.06 167.73 193.07 261.27 139.06 167.73 85.73"/><polygon class="cls-6" points="335.74 288.69 167.73 385.69 167.73 192.91 335.74 95.91 335.74 288.69"/><polygon class="cls-7" points="167.73 385.69 -0.28 288.69 -0.28 95.91 167.73 192.91 167.73 385.69"/><path class="cls-8" d="M407.09,132.31a12.3,12.3,0,1,1-12.3,12.45A12.29,12.29,0,0,1,407.09,132.31Zm-9.9,110.4V168.9h19.95v73.8Z"/><path class="cls-8" d="M458.38,242.7H438.44V168.9h19.35v9.15c4.5-7.65,13.35-11.1,21.3-11.1,18.3,0,26.7,13,26.7,29.25v46.5H485.83v-43c0-8.25-4-14.7-13.65-14.7-8.7,0-13.8,6.75-13.8,15.3Z"/><path class="cls-8" d="M540.43,205.8c0,13.35,8.7,20.85,18.9,20.85s15.3-6.75,16.95-12.45l17.55,5.85c-3.3,12.3-14.85,24.9-34.5,24.9-21.75,0-38.85-16.5-38.85-39.15,0-22.8,16.8-39.15,38.25-39.15,20.1,0,31.5,12.45,34.65,24.9l-17.85,6c-1.8-6.15-6.45-12.45-16.35-12.45C549,185.1,540.43,192.45,540.43,205.8Z"/><path class="cls-8" d="M608.53,242.7V134.11h19.95V242.7Z"/><path class="cls-8" d="M697.18,234.75c-4,6.9-12.6,9.9-20.4,9.9-17.85,0-28-13-28-29.1V168.9h19.95v42.6c0,8.25,4.2,14.85,13.5,14.85,8.85,0,13.95-6,13.95-14.55V168.9h19.95v60.45a121.43,121.43,0,0,0,.75,13.35h-19A50.54,50.54,0,0,1,697.18,234.75Z"/><path class="cls-8" d="M807.43,229.35c0,5,.3,10.35.6,13.35H789a50.86,50.86,0,0,1-.75-8.55c-3.3,5.85-10.8,10.35-20.7,10.35-21,0-36-16.5-36-38.85,0-21.6,14.55-38.55,35.4-38.55,12.75,0,18.75,5.25,20.85,9.15V134.11h19.65Zm-37.5-2.7c10.2,0,18.15-7.8,18.15-21.15S780.13,185,769.93,185s-18.3,7.5-18.3,20.7S759.43,226.65,769.93,226.65Z"/><path class="cls-8" d="M895.18,221.55c-3.75,12.75-15.45,23.4-33.6,23.4-20.25,0-38.1-14.55-38.1-39.45,0-23.55,17.4-38.85,36.3-38.85,22.8,0,36.45,14.55,36.45,38.25,0,2.85-.3,5.85-.3,6.15h-52.8c.45,9.75,8.7,16.8,18.6,16.8,9.3,0,14.4-4.65,16.8-11.25Zm-18.6-24.15c-.3-7.35-5.1-14.55-16.5-14.55-10.35,0-16,7.8-16.5,14.55Z"/><path class="cls-8" d="M973.48,134.11c26.7,0,53.4,19.8,53.4,55.35s-26.7,55.5-53.4,55.5-53.4-19.95-53.4-55.5S946.78,134.11,973.48,134.11Zm0,97.35c19.8,0,38.4-14.25,38.4-42s-18.6-41.85-38.4-41.85-38.4,14.1-38.4,41.85S953.68,231.45,973.48,231.45Z"/><path class="cls-8" d="M1101,165.15c-1.2-7.65-7.65-18.15-22.5-18.15-12,0-20.55,7.8-20.55,17.7,0,7.65,4.65,13.5,13.65,15.45l15.9,3.45c17.7,3.9,27.6,15,27.6,29.85,0,16.5-14.1,31.5-36.75,31.5-25.65,0-37.8-16.5-39.75-31.65l14.1-4.5c1.05,11.85,9.45,22.8,25.5,22.8,14.7,0,21.9-7.65,21.9-16.95,0-7.65-5.25-14.25-15.9-16.5l-15.15-3.3c-15.15-3.3-25.95-13.2-25.95-29.1,0-16.65,15.45-31.65,35.1-31.65,24,0,33.6,14.85,36,26.4Z"/></g></g></svg>