<?xml version="1.0" encoding="utf-8"?>
<!-- Generator: Adobe Illustrator 21.0.2, SVG Export Plug-In . SVG Version: 6.00 Build 0)  -->
<svg version="1.1" id="Layer_1" xmlns="http://www.w3.org/2000/svg" xmlns:xlink="http://www.w3.org/1999/xlink" x="0px" y="0px"
	 viewBox="0 0 320 72" style="enable-background:new 0 0 320 72;" xml:space="preserve">
<style type="text/css">
	.st0{fill:#6080C0;}
	.st1{fill:#26398E;}
	.st2{fill:#4F4C9B;}
	.st3{fill:#FFFFFF;}
	.st4{fill:#AEB6C7;}
</style>
<polygon class="st0" points="31.8,16.7 47.2,25.6 60.4,17.9 31.8,1.4 3.1,17.9 10.1,21.9 16.4,25.6 "/>
<polygon class="st1" points="48.2,45.2 32.8,54.1 32.8,55.3 32.8,69.4 61.5,52.9 61.5,19.8 48.2,27.4 "/>
<polygon class="st2" points="15.3,45.2 15.3,27.4 15,27.2 2.1,19.8 2.1,52.9 30.7,69.4 30.7,55.3 30.7,54.1 "/>
<polygon class="st3" points="18.6,26.9 18.6,26.9 20.6,28 31.8,34.5 45.1,26.8 31.8,19.1 18.5,26.8 "/>
<polygon class="st4" points="46.1,28.6 32.8,36.3 32.8,51.6 46.1,44 "/>
<polygon class="st1" points="30.7,51.6 30.7,36.3 17.4,28.6 17.4,44 "/>
<g>
	<path class="st3" d="M86.6,20.9c-1.9,0-3.5-1.5-3.5-3.5s1.5-3.5,3.5-3.5c1.9,0,3.4,1.5,3.4,3.5C90,19.3,88.5,20.9,86.6,20.9z
		 M83.7,54.1V26.3h5.8v27.8H83.7z"/>
	<path class="st3" d="M114.7,54.1V37.2c0-3.8,0-6.5-4.2-6.5c-2.1,0-4.6,0.5-7.1,1.4v22.1h-5.8V26.3h5.5v2.3c4.1-2.1,7.2-3,9.8-3
		c2.8,0,5,1.1,6.2,2.9c1.1,1.6,1.4,3,1.4,7.4v18.2H114.7z"/>
	<path class="st3" d="M137.5,54.7c-6.7,0-11-5-11-14.3c0-9.1,4.8-14.8,11.8-14.8c2.3,0,5.3,0.5,9.2,1.9l-0.9,3.6
		c-3.2-0.7-4.5-0.9-6.7-0.9c-4.9,0-7.3,3.3-7.3,10c0,6.3,2.5,9.6,6.9,9.6c1.9,0,4.6-0.5,7.5-1.4l1.1,3.4
		C143.7,53.7,140.2,54.7,137.5,54.7z"/>
	<path class="st3" d="M153,54.1V12.4h5.8v41.7H153z"/>
	<path class="st3" d="M183.9,54.1v-2.3c-4.1,2.1-7.2,3-9.7,3c-3,0-5.1-1-6.3-2.8c-1.2-1.7-1.4-3.3-1.4-7.3V26.3h5.8v16.9
		c0,3.8,0,6.5,4.2,6.5c2.1,0,4.6-0.5,7.1-1.4V26.3h5.8v27.8H183.9z"/>
	<path class="st3" d="M214.4,54.1v-2.5c-3.3,1.9-6.5,3.2-9.2,3.2c-6,0-9.5-5.5-9.5-14.5c0-8.9,4.1-14.6,10.2-14.6
		c3,0,5.8,1.6,8.3,3.1V12.4h5.8v41.7H214.4z M214.1,32.2c-3.5-1.2-4.6-1.5-6.3-1.5c-3.9,0-6,3.2-6,9.4c0,6.7,1.9,9.8,5.8,9.8
		c1.6,0,3.2-0.4,6.6-1.6V32.2z"/>
	<path class="st3" d="M232.3,40.9v0.9c0,5.6,2.3,8.1,6.7,8.1c2.5,0,4.8-0.5,9.3-1.9l1.1,3.4c-5.8,2.5-8.6,3.3-11.9,3.3
		c-6.8,0-11.3-5.1-11.3-13.6c0-9.3,4.6-15.4,12.3-15.4c7.5,0,11.2,4.5,11.2,14v1.3H232.3z M239,29.7c-3.8,0-6,2.7-6.5,7.9l11.7-0.5
		C244.1,32.1,242.5,29.7,239,29.7z"/>
</g>
<path class="st3" d="M289.9,32.4c-0.2-1.9-0.7-3.8-1.4-5.6c-0.8-2.1-1.9-3.8-3.3-5.2c-1.8-1.8-4.1-3-6.8-3.5
	c-1.2-0.2-2.4-0.3-3.6-0.3c-1.4,0-2.9,0.2-4.3,0.5c-1.9,0.5-3.6,1.3-5.1,2.4c-2.1,1.6-3.6,3.8-4.7,6.6c-0.9,2.3-1.4,4.9-1.5,7.8
	c-0.2,3.8,0.1,7,0.8,10c0.8,3.3,2,5.8,3.9,7.7c1.2,1.3,2.7,2.3,4.3,2.9c1.6,0.6,3.4,1,5.5,1.1c2.3,0.1,4.4-0.1,6.5-0.8
	c2.5-0.8,4.6-2.2,6.2-4.3c1.6-2,2.7-4.6,3.3-7.7c0.5-2.3,0.6-4.6,0.7-6.6c0-0.5-0.1-1-0.1-1.5C290.1,34.8,290.1,33.6,289.9,32.4z
	 M286,36.9c0,0.2,0,0.4,0,0.6c0,2.9-0.2,5.2-0.7,7.3c-0.7,2.9-1.7,5-3.3,6.6c-1.4,1.4-3.1,2.2-5.2,2.6c-0.7,0.1-1.5,0.2-2.2,0.2
	c-1.4,0-2.7-0.2-4-0.6c-2.8-0.9-4.8-2.8-5.8-5.7c-1.3-3.6-1.9-7.7-1.6-12.4c0.1-2.4,0.4-4.5,1-6.4c0.9-2.9,2.2-4.9,4.1-6.3
	c1.1-0.8,2.5-1.4,4-1.7c1.7-0.3,3.4-0.3,5,0.1c3,0.6,5.3,2.5,6.7,5.5c1.4,3,1.7,6.2,1.9,9.2C286.1,36,286,36.5,286,36.9z"/>
<path class="st3" d="M318,41c-0.6-1.4-1.7-2.6-3.6-3.6c-2.1-1.2-4.5-2-6.6-2.6c-1.7-0.5-3.5-1.1-5.2-2c-1.8-0.9-2.7-2.2-2.7-4
	c0-0.6,0-1.3,0.1-2.1c0.1-1.2,0.6-2.3,1.4-3.3c1.2-1.4,2.8-2.2,5-2.4c0.5,0,1-0.1,1.6-0.1c2.1,0,4.3,0.4,6.2,0.7
	c0.6,0.1,1.2,0.2,1.8,0.3l0.5,0.1l0.6-2.7c-3.1-0.8-5.7-1.3-8.3-1.5c-0.5,0-0.9,0-1.4,0c-2,0-3.8,0.3-5.3,0.9
	c-2.3,0.9-3.9,2.4-4.9,4.5c-0.9,1.9-1.2,3.9-1,6.2c0.3,2.4,1.4,4.3,3.4,5.7c1.7,1.2,3.6,2,5.6,2.7c0.5,0.2,1.1,0.4,1.7,0.6
	c1.7,0.6,3.4,1.2,5,2c1.9,1,3,2.4,3.2,4.2c0.1,1.3,0.2,3.1-0.7,4.7c-1.3,2.2-3.4,3.5-6.4,4c-0.7,0.1-1.4,0.2-2.2,0.2
	c-2,0-4.1-0.4-5.8-0.7c-0.6-0.1-1.3-0.3-1.9-0.4c-0.4-0.1-0.9-0.2-1.3-0.3c-0.2,0.7-0.4,1.4-0.6,2.2l-0.2,0.6c0.5,0.1,1,0.2,1.5,0.4
	c1.2,0.3,2.4,0.6,3.7,0.8c1.2,0.2,2.4,0.3,3.5,0.4l0.7,0c2.6,0.2,5-0.2,7.1-1c3.1-1.2,5.2-3.4,6.1-6.5c0.5-1.8,0.7-3.7,0.4-5.6
	C318.5,42.6,318.3,41.7,318,41z"/>
</svg>
