<?xml version="1.0" encoding="utf-8"?>
<!-- Generator: Adobe Illustrator 21.0.2, SVG Export Plug-In . SVG Version: 6.00 Build 0)  -->
<svg version="1.1" id="Layer_1" xmlns="http://www.w3.org/2000/svg" xmlns:xlink="http://www.w3.org/1999/xlink" x="0px" y="0px"
	 viewBox="0 0 1123 395" style="enable-background:new 0 0 1123 395;" xml:space="preserve">
<style type="text/css">
	.st0{fill:#80C5E9;}
	.st1{fill:#45B5E1;}
	.st2{fill:#FFFFFF;}
	.st3{fill:#00B2E6;}
	.st4{fill:#00ACE5;}
	.st5{fill:#C7E3F5;}
	.st6{fill:#9CD5F4;}
	.st7{fill:#8ED1F3;}
	.st8{fill:#00ADE5;}
	.st9{fill:#00AAE6;}
	.st10{fill:#B4DBF2;}
	.st11{fill:#8FD1F4;}
	.st12{fill:#82CEF3;}
</style>
<polyline class="st0" points="170.3,22 17.9,108.9 85.5,148 170.3,99.6 255.1,148 322.8,108.9 170.3,22 "/>
<polyline class="st1" points="322.6,284 170.3,372 18.1,284 17.8,284.2 170.3,372.3 322.9,284.2 322.6,284 "/>
<polyline class="st2" points="170.3,99.6 85.4,148 170.3,197.1 255.3,148 170.3,99.6 "/>
<polyline class="st0" points="322.9,108.9 322.8,108.9 322.9,109 255.3,148 255.3,148 255.3,245.4 255.1,245.5 322.6,284 
	322.9,283.9 322.9,108.9 "/>
<polyline class="st3" points="322.8,108.9 255.1,148 255.2,148 255.3,148 255.3,148 322.9,109 322.8,108.9 "/>
<polyline class="st4" points="255.1,245.5 170.3,294.5 170.3,372 322.6,284 255.1,245.5 "/>
<polyline class="st5" points="255.3,148 255.2,148 255.3,148 255.3,148 "/>
<polyline class="st6" points="255.3,148 255.2,148 255.2,148 255.3,148 255.3,148 "/>
<polyline class="st5" points="255.3,148 170.3,197.1 170.3,197.2 255.1,245.5 255.3,245.4 255.3,148 "/>
<polyline class="st7" points="170.3,197.2 170.3,294.5 255.1,245.5 170.3,197.2 "/>
<polyline class="st2" points="255.1,148 170.3,196.9 170.3,197.1 255.3,148 255.2,148 255.2,148 255.1,148 "/>
<path class="st1" d="M17.8,109v174.9l0.3,0.2l67.5-38.5l-0.2-0.1V148L17.8,109 M17.8,108.9v0.1V108.9L17.8,108.9"/>
<polyline class="st8" points="17.9,108.9 17.8,109 85.4,148 85.4,148 85.4,148 85.5,148 17.9,108.9 "/>
<polyline class="st9" points="170.3,197.2 170.3,294.5 85.6,245.5 18.1,284 170.3,372 170.3,294.5 170.3,197.2 "/>
<polyline class="st10" points="85.4,148 85.4,245.4 85.6,245.5 170.3,197.2 170.3,197.1 85.4,148 85.4,148 85.4,148 "/>
<polyline class="st11" points="85.4,148 85.4,148 85.4,148 85.4,148 85.4,148 "/>
<polyline class="st12" points="170.3,197.2 85.6,245.5 170.3,294.5 170.3,197.2 "/>
<polyline class="st2" points="85.5,148 85.4,148 85.4,148 85.4,148 170.3,197.1 170.3,196.9 85.5,148 "/>
<path class="st2" d="M370.7,137.3h18.1v15.3h-18.1V137.3z M371.2,166h17l0.2,80.6h-17.1V166z"/>
<path class="st2" d="M430.4,166.1c6.9-1.6,13.6-2.3,19.9-2.3c11.3,0,19.6,2.4,25,7.1c5.4,4.7,8.1,12.1,8.1,22.1v53.6h-17v-51.3
	c0-11.3-6.4-17-19.2-17c-6.1,0-12,1-17.6,3.1v65.2h-17v-74.4C417.5,169.7,423.4,167.7,430.4,166.1z"/>
<path class="st2" d="M514.5,238.4c-7.6-6.6-11.4-17.2-11.4-31.8c0-15.1,3.7-26,11.2-32.7c7.5-6.7,17-10.1,28.5-10.1
	c8.7,0,17,1.6,24.9,4.8v15.2c-8.2-3.4-15.7-5.2-22.4-5.2c-8.5,0-14.9,2.1-19.1,6.4c-4.2,4.3-6.3,11-6.3,20.3c0,9.7,2,16.8,6.1,21.2
	c4.1,4.5,10.7,6.7,19.7,6.7c7.3,0,14.7-1.8,22.1-5.3V243c-7.7,3.4-16,5.2-24.9,5.2C531.6,248.2,522.1,244.9,514.5,238.4z"/>
<rect x="587.4" y="134.9" class="st2" width="16.8" height="111.7"/>
<path class="st2" d="M637.5,240.7c-6.3-5.5-9.4-13.6-9.4-24.3v-50.9h17V214c0,6.9,1.5,12,4.6,15.3c3.1,3.3,7.8,4.9,14.3,4.9
	c6.5,0,11.2-1.6,14.3-4.9c3.1-3.3,4.6-8.4,4.6-15.3v-48.4h16.3v50.9c0,10.7-3.1,18.8-9.2,24.3c-6.1,5.5-14.8,8.3-26,8.3
	C652.6,249,643.8,246.2,637.5,240.7z"/>
<path class="st2" d="M793.7,131.6v97.9c0,4.3-1.8,7.9-5.3,10.9c-3.6,3-8,5.1-13.4,6.5c-5.4,1.4-10.9,2.1-16.6,2.1
	c-11.5,0-21-3.3-28.4-9.8c-7.4-6.5-11.1-17.9-11.1-34.1c0-13,3.2-23.2,9.5-30.5c6.4-7.3,15.8-11,28.3-11c2.9,0,6.3,0.4,10.1,1.1
	c3.8,0.8,7.2,1.9,10.3,3.4v-36.5H793.7z M777,182.8c-2.6-1.5-5.5-2.7-8.6-3.5c-3.2-0.8-6.3-1.2-9.3-1.2c-15.3,0-22.9,9.1-22.9,27.3
	c0,9,1.7,16.1,5.2,21.2c3.4,5.1,9.5,7.7,18.1,7.7c5,0,9.1-0.6,12.5-1.8c3.4-1.2,5.1-2.7,5.1-4.7V182.8z"/>
<path class="st2" d="M878.8,175.8c5.9,8.1,8.7,19.5,8.6,34.2h-56.8c0.5,8,2.9,14,7,18.2c4.1,4.1,10,6.2,17.7,6.2
	c5,0,9.7-0.6,14.2-1.9c4.5-1.2,8.5-2.8,11.9-4.8v15.8c-8.4,3.7-18,5.5-28.9,5.5c-12.2,0-21.7-3.7-28.7-11.1
	c-6.9-7.4-10.4-17.8-10.4-31.4c0-13.9,3.3-24.5,9.8-31.9c6.6-7.4,15.8-11.1,27.8-11.1C863.7,163.6,872.9,167.7,878.8,175.8z
	 M837.2,182c-3.2,3-5.3,8.1-6.3,15.3h39.2c-0.8-6.9-2.7-11.9-5.8-15.1c-3.1-3.2-7.7-4.8-13.7-4.8C844.9,177.5,840.4,179,837.2,182z"
	/>
<path class="st2" d="M929.8,234.2c-8.1-9.3-12.2-23.1-12.2-41.4c0-18.3,4.1-32.1,12.2-41.4c8.1-9.3,20.2-14,36.1-14
	c16,0,28.1,4.7,36.3,14c8.1,9.3,12.2,23.1,12.2,41.4c0,18.3-4.1,32.1-12.2,41.4c-8.1,9.3-20.2,14-36.3,14
	C949.9,248.2,937.9,243.5,929.8,234.2z M993.6,226.6c5.8-7.1,8.7-18.4,8.7-33.7c0-15.3-2.9-26.5-8.7-33.7
	c-5.8-7.2-15.1-10.7-27.8-10.7c-12.6,0-21.8,3.6-27.6,10.7c-5.8,7.2-8.7,18.4-8.7,33.7c0,15.4,2.9,26.6,8.7,33.7
	c5.8,7.1,15,10.7,27.6,10.7C978.6,237.2,987.8,233.7,993.6,226.6z"/>
<path class="st2" d="M1050.5,246.1c-4.4-1.4-9.7-3.8-16-7.1v-12.6c3.9,3.2,8.7,5.9,14.6,8c5.9,2.1,12.4,3.1,19.6,3.1
	c7.9,0,13.7-1.7,17.6-5c3.9-3.3,5.8-7.9,5.8-13.6c0-4.2-1.1-7.7-3.4-10.4c-2.3-2.7-5-4.9-8.1-6.5c-3.1-1.6-7.8-3.5-14-5.9
	c-6.7-2.3-12-4.4-15.9-6.5c-3.9-2-7.3-5.1-10.1-9c-2.8-4-4.2-9.3-4.2-15.8c0-4.4,1.1-8.7,3.3-12.9c2.2-4.2,5.8-7.7,10.7-10.5
	c4.9-2.8,11.2-4.2,19-4.2c5.7,0,10.4,0.5,14,1.6c3.6,1.1,8.4,3.1,14.3,6v11.9c-0.8-0.4-2.8-1.6-6.1-3.5c-3.3-1.9-6.7-3.3-10.2-4.1
	c-3.5-0.9-7.3-1.3-11.4-1.3c-7.4,0-12.9,1.5-16.5,4.6c-3.6,3.1-5.3,6.9-5.3,11.5c0,4.2,0.9,7.6,2.8,10.2c1.9,2.6,4.4,4.7,7.6,6.3
	c3.2,1.6,7.7,3.4,13.5,5.3c6.7,2.3,12.1,4.5,16.4,6.7c4.3,2.2,7.9,5.4,10.9,9.4c3,4.1,4.5,9.3,4.5,15.7c0,8.5-2.8,15.7-8.5,21.6
	c-5.7,5.9-14.7,8.9-27.2,8.9C1060.8,248.2,1054.9,247.5,1050.5,246.1z"/>
</svg>
